<svg xmlns="http://www.w3.org/2000/svg" width="86.76" height="88.28" viewBox="0 0 86.76 88.28"><title>etch-knob</title><ellipse cx="48.38" cy="51.14" rx="37.2" ry="33.19" transform="translate(-20.71 37.63) rotate(-35.53)" style="fill:#ddd;stroke:#fff;stroke-miterlimit:10"/><path d="M67.66,78.15C50.94,90.09,28.75,87.68,18.1,72.76l-10-14c-10.65-14.92-5.73-36.69,11-48.63S58,.61,68.65,15.53l10,14C89.3,44.44,84.38,66.22,67.66,78.15Z" style="fill:none;stroke:#fff;stroke-miterlimit:10;stroke-width:5px"/><ellipse cx="38.38" cy="37.14" rx="37.2" ry="33.19" transform="translate(-14.44 29.21) rotate(-35.53)" style="fill:#fff;stroke:#fff;stroke-miterlimit:10"/><line x1="49.18" y1="85.45" x2="37.95" y2="71.58" style="fill:none;stroke:#fff;stroke-miterlimit:10"/><line x1="65.9" y1="79.33" x2="55.02" y2="65.89" style="fill:none;stroke:#fff;stroke-miterlimit:10"/><line x1="79.23" y1="65.51" x2="68.67" y2="52.46" style="fill:none;stroke:#fff;stroke-miterlimit:10"/><line x1="84.27" y1="47.55" x2="74.22" y2="35.14" style="fill:none;stroke:#fff;stroke-miterlimit:10"/></svg>